<svg version="1.1" id="Layer_1" xmlns="http://www.w3.org/2000/svg" xmlns:xlink="http://www.w3.org/1999/xlink" x="0px" y="0px"
	 width="100%" viewBox="0 0 256 256" enable-background="new 0 0 256 256" xml:space="preserve">
<path fill="#FFFFFF" opacity="1.000000" stroke="none" 
	d="
M1.000000,69.000000 
	C1.000000,46.000004 1.000000,23.500008 1.000000,1.000009 
	C86.333313,1.000006 171.666626,1.000006 256.999939,1.000003 
	C256.999969,86.333305 256.999969,171.666611 257.000000,256.999939 
	C171.666718,256.999939 86.333435,256.999939 1.000075,256.999969 
	C1.000000,194.500000 1.000000,132.000000 1.000000,69.000000 
M5.016103,135.908112 
	C5.062585,139.955719 5.109068,144.003342 5.020975,148.973145 
	C5.020975,183.549225 5.020975,218.125305 5.020975,252.878174 
	C40.380821,252.878174 75.161736,252.878174 110.877632,253.021744 
	C122.935814,252.970200 134.994003,252.918655 147.977768,252.982010 
	C182.866638,252.982010 217.755508,252.982010 253.002167,252.982010 
	C253.002167,229.359406 253.002167,206.261154 253.728119,182.660339 
	C253.819305,181.672592 253.990097,180.684860 253.990311,179.697098 
	C254.002884,121.627930 254.003540,63.558765 253.984451,5.489604 
	C253.984100,4.392915 253.733749,3.296309 253.596756,2.172723 
	C228.848648,2.172723 204.409286,2.172723 179.074524,2.037123 
	C176.053452,2.080253 173.032379,2.123383 169.082336,2.021796 
	C153.286133,2.014581 137.489914,2.010160 121.693710,1.996620 
	C119.717232,1.994925 117.452461,1.569039 117.122345,4.975621 
	C114.755074,5.057755 112.387794,5.139888 109.093857,5.030751 
	C74.496773,5.030751 39.899696,5.030751 5.185534,5.030751 
	C5.185534,40.394474 5.185534,75.192795 5.057088,110.918663 
	C5.092885,118.942291 5.128681,126.965919 5.016103,135.908112 
z"/>
<path fill="#FE6637" opacity="1.000000" stroke="none" 
	d="
M179.969925,2.172723 
	C204.409286,2.172723 228.848648,2.172723 253.596756,2.172723 
	C253.733749,3.296309 253.984100,4.392915 253.984451,5.489604 
	C254.003540,63.558765 254.002884,121.627930 253.990311,179.697098 
	C253.990097,180.684860 253.819305,181.672592 252.910995,182.849060 
	C248.440765,183.017914 244.787674,182.998032 241.200134,182.625671 
	C243.220886,177.190552 245.176071,172.107895 247.389008,166.869278 
	C248.868988,161.255539 250.450012,155.848358 251.228485,150.328018 
	C252.366257,142.259628 252.928085,134.110001 253.735413,125.995003 
	C249.739670,132.963135 247.309647,140.252319 243.370544,146.605942 
	C239.320969,153.137772 233.798492,158.756454 228.606506,164.912659 
	C222.567429,168.715515 217.153458,173.059616 211.033600,175.862564 
	C204.337982,178.929245 196.990021,180.571625 190.002441,182.494232 
	C193.039322,180.426376 196.162094,178.923309 198.927582,176.925613 
	C204.903702,172.608673 209.057922,166.975143 211.232666,158.636673 
	C200.362823,162.452805 190.671600,161.005325 180.850800,157.665405 
	C177.731949,155.554886 174.831482,153.698242 171.738037,151.580048 
	C161.534973,140.667007 159.505478,127.730331 161.323181,113.971161 
	C154.736893,112.254982 151.081665,114.891014 151.046219,121.011368 
	C150.992233,130.332458 151.080917,139.654434 151.016449,148.975403 
	C150.961853,156.868942 147.961655,159.875534 140.196289,160.027267 
	C138.698776,160.056534 137.200180,160.036835 135.702118,160.031204 
	C126.411461,159.996262 123.026604,156.673340 123.008858,147.454758 
	C122.981934,133.472702 123.143509,119.488541 122.945747,105.509224 
	C122.836830,97.810112 122.355125,90.199615 131.295212,86.232300 
	C139.605270,86.579491 147.306534,89.373154 155.467072,86.523285 
	C162.507751,84.064499 168.558884,87.581223 171.399933,94.023605 
	C178.976990,91.601814 180.336502,86.171295 180.189728,78.667831 
	C179.691162,53.177776 179.981125,27.672306 179.969925,2.172723 
M241.752808,76.232430 
	C236.596039,65.489647 230.335770,55.521671 222.483719,47.276226 
	C224.771088,59.126377 227.075287,71.063683 229.251419,83.836075 
	C229.251419,91.840782 229.251419,99.845490 229.251419,107.880630 
	C233.525726,107.469765 245.442703,99.744789 246.978729,95.055489 
	C247.892578,92.265633 245.851822,88.484207 245.050888,85.169960 
	C244.788910,84.085884 244.247925,83.069237 243.946884,81.501266 
	C243.905853,81.328583 243.864838,81.155907 243.860443,80.466965 
	C243.585297,80.273170 243.310150,80.079376 242.999924,79.246330 
	C242.941589,78.825363 242.883255,78.404388 242.864761,77.465263 
	C242.590103,77.267639 242.315445,77.070007 241.752808,76.232430 
M167.080841,108.687416 
	C166.526794,110.772675 165.894714,112.840752 165.431168,114.945930 
	C162.008118,130.491837 168.034332,145.799377 180.789246,152.969650 
	C190.536911,158.449402 200.894058,157.653473 211.316147,154.991745 
	C218.809525,153.077988 219.792511,151.891037 219.563400,143.999313 
	C219.374298,137.485886 216.614807,135.556091 210.300720,136.955612 
	C205.956085,137.918594 201.478683,138.786118 197.061386,138.782410 
	C192.216095,138.778336 188.252365,136.550812 186.479172,131.042892 
	C195.531586,131.042892 204.164886,130.933517 212.793533,131.086472 
	C217.501953,131.169907 219.761597,128.642426 219.691666,124.462906 
	C219.611725,119.685455 219.068390,114.837189 218.040359,110.170837 
	C216.022141,101.010010 211.093353,93.898415 201.646576,91.194656 
	C191.249908,88.219055 181.893112,90.432480 174.121201,98.152611 
	C171.912949,100.346161 170.026382,102.863541 167.305054,104.689568 
	C167.204727,103.370338 167.027740,102.051773 167.016281,100.731773 
	C166.928436,90.613220 163.859467,88.227127 153.943649,90.714607 
	C152.022568,91.196533 150.188492,92.016747 148.281403,92.566948 
	C147.449280,92.807014 146.500443,92.953957 145.662979,92.808067 
	C142.637650,92.281044 139.649506,91.164558 136.624908,91.080978 
	C128.045822,90.843910 126.997955,92.065956 126.996567,100.845116 
	C126.994324,114.995140 126.995956,129.145172 126.995964,143.295197 
	C126.995964,156.052429 127.257561,156.304199 140.235153,156.036896 
	C145.815216,155.921951 146.989136,154.820831 147.021332,149.253067 
	C147.077164,139.598083 147.021774,129.942505 147.043167,120.287239 
	C147.057648,113.753105 152.341461,108.918823 158.866562,109.006592 
	C161.590729,109.043228 164.325684,108.276230 167.080841,108.687416 
z"/>
<path fill="#05B38A" opacity="1.000000" stroke="none" 
	d="
M110.020523,5.222022 
	C112.387794,5.139888 114.755074,5.057755 118.025002,4.975471 
	C120.918739,4.982533 122.915001,5.087105 124.900085,4.981546 
	C140.755493,4.138417 156.199646,5.953132 171.208069,12.327152 
	C172.205124,19.338617 173.274750,25.996527 173.672379,32.694332 
	C173.855515,35.779373 172.723175,38.942513 171.706696,42.049278 
	C170.393219,42.019127 169.560364,42.001945 168.727493,42.001911 
	C128.579803,42.000343 88.432022,42.026817 48.284657,41.911758 
	C46.509132,41.906670 44.737297,40.611710 43.115715,39.622921 
	C47.171940,35.758392 50.729549,31.685938 55.043686,28.710323 
	C69.551666,18.703659 85.228935,11.098812 102.560303,7.234853 
	C105.071800,6.674926 107.534981,5.898346 110.020523,5.222022 
z"/>
<path fill="#42C89C" opacity="1.000000" stroke="none" 
	d="
M147.052185,252.867126 
	C134.994003,252.918655 122.935814,252.970200 110.277641,252.648300 
	C107.740715,251.866333 105.760277,251.600220 103.874489,251.024231 
	C96.308403,248.713242 88.602501,246.735077 81.261475,243.839783 
	C68.484650,238.800537 56.949715,231.592377 47.258205,221.744080 
	C49.187317,221.291992 50.824192,221.019135 52.461189,221.018417 
	C103.654274,220.995956 154.847366,220.997452 206.040451,221.010513 
	C207.864059,221.010986 209.687622,221.165939 211.265869,221.494873 
	C207.211090,224.883041 203.550262,228.229416 199.564804,231.129700 
	C186.750671,240.454865 172.481293,246.601105 157.046661,250.127182 
	C153.682129,250.895798 150.381989,251.946396 147.052185,252.867126 
z"/>
<path fill="#47704C" opacity="1.000000" stroke="none" 
	d="
M46.966026,222.050171 
	C56.949715,231.592377 68.484650,238.800537 81.261475,243.839783 
	C88.602501,246.735077 96.308403,248.713242 103.874489,251.024231 
	C105.760277,251.600220 107.740715,251.866333 109.810150,252.576508 
	C75.161736,252.878174 40.380821,252.878174 5.020975,252.878174 
	C5.020975,218.125305 5.020975,183.549225 5.418281,148.701172 
	C6.914426,152.955231 8.013266,157.481232 9.086000,162.260284 
	C9.075269,162.682144 9.090642,162.850998 9.154905,163.260986 
	C9.387989,163.792267 9.643138,163.991669 9.978914,164.435593 
	C13.633030,173.194794 17.277473,181.618698 20.975994,190.390472 
	C24.655327,195.833984 28.280584,200.929611 32.057777,206.330658 
	C37.128487,211.774094 42.047256,216.912125 46.966026,222.050171 
z"/>
<path fill="#47704C" opacity="1.000000" stroke="none" 
	d="
M109.557190,5.126387 
	C107.534981,5.898346 105.071800,6.674926 102.560303,7.234853 
	C85.228935,11.098812 69.551666,18.703659 55.043686,28.710323 
	C50.729549,31.685938 47.171940,35.758392 42.807251,39.779938 
	C39.170818,43.623962 35.796650,46.856026 32.881809,50.459625 
	C30.568773,53.319218 28.818180,56.633759 26.824728,59.780323 
	C26.831598,59.814350 26.864746,59.875355 26.527882,59.895149 
	C25.428679,60.932480 24.666340,61.950016 23.603252,63.130623 
	C20.851059,68.171684 18.399611,73.049683 15.664390,78.141380 
	C12.911002,85.875488 10.441389,93.395897 7.700197,101.119514 
	C7.326521,102.199310 7.224425,103.075897 7.079132,104.288040 
	C6.994320,105.072594 6.952706,105.521599 6.708048,106.121780 
	C6.065181,107.512344 5.625357,108.751724 5.185534,109.991112 
	C5.185534,75.192795 5.185534,40.394474 5.185534,5.030751 
	C39.899696,5.030751 74.496773,5.030751 109.557190,5.126387 
z"/>
<path fill="#47704C" opacity="1.000000" stroke="none" 
	d="
M147.514984,252.924561 
	C150.381989,251.946396 153.682129,250.895798 157.046661,250.127182 
	C172.481293,246.601105 186.750671,240.454865 199.564804,231.129700 
	C203.550262,228.229416 207.211090,224.883041 211.553635,221.391525 
	C217.011185,215.694550 221.935608,210.346909 227.033127,204.698975 
	C230.485550,199.624191 233.764893,194.849716 237.321411,189.876678 
	C238.777267,187.444794 239.955917,185.211472 241.134567,182.978149 
	C244.787674,182.998032 248.440765,183.017914 252.548019,183.100342 
	C253.002167,206.261154 253.002167,229.359406 253.002167,252.982010 
	C217.755508,252.982010 182.866638,252.982010 147.514984,252.924561 
z"/>
<path fill="#FD441F" opacity="1.000000" stroke="none" 
	d="
M172.187302,42.070240 
	C172.723175,38.942513 173.855515,35.779373 173.672379,32.694332 
	C173.274750,25.996527 172.205124,19.338617 171.206421,11.907433 
	C170.672180,8.155816 170.341736,5.161164 170.011307,2.166512 
	C173.032379,2.123383 176.053452,2.080253 179.522217,2.104923 
	C179.981125,27.672306 179.691162,53.177776 180.189728,78.667831 
	C180.336502,86.171295 178.976990,91.601814 171.399933,94.023605 
	C168.558884,87.581223 162.507751,84.064499 155.467072,86.523285 
	C147.306534,89.373154 139.605270,86.579491 130.928345,86.181198 
	C128.097015,85.343330 126.041847,84.637367 123.734352,83.653740 
	C122.651581,81.998131 121.400581,80.710709 121.080330,79.222946 
	C120.459290,76.337753 120.361610,73.339905 120.359344,70.181030 
	C122.145142,66.706848 123.618683,63.440384 125.410294,60.018501 
	C127.400681,57.475048 129.073013,55.087009 130.248993,53.407726 
	C134.706833,58.036907 138.620361,62.100853 142.756622,66.477524 
	C149.519043,70.761269 155.934097,70.361923 161.838211,65.689713 
	C166.749573,61.803123 169.954514,56.668739 171.127731,49.948875 
	C171.540802,47.040646 171.864044,44.555443 172.187302,42.070240 
z"/>
<path fill="#1FBD92" opacity="1.000000" stroke="none" 
	d="
M5.121311,110.454887 
	C5.625357,108.751724 6.065181,107.512344 7.104626,106.093048 
	C11.039132,105.275429 14.355303,104.244919 17.712950,104.084930 
	C23.956892,103.787437 30.225006,103.997322 36.570751,104.456757 
	C36.600807,114.608742 36.543175,124.299965 36.049133,133.992096 
	C33.638905,133.995941 31.662859,133.938934 29.691666,134.012299 
	C21.515139,134.316620 13.340077,134.660309 5.164478,134.989548 
	C5.128681,126.965919 5.092885,118.942291 5.121311,110.454887 
z"/>
<path fill="#30BD92" opacity="1.000000" stroke="none" 
	d="
M5.090291,135.448822 
	C13.340077,134.660309 21.515139,134.316620 29.691666,134.012299 
	C31.662859,133.938934 33.638905,133.995941 36.144543,134.451782 
	C36.710087,140.062790 36.483482,145.233871 36.855335,150.361572 
	C37.185757,154.918030 38.454605,159.218506 44.059265,160.373489 
	C44.075104,161.431854 44.113544,162.137497 43.718735,162.883530 
	C40.180119,162.615952 37.077999,162.088425 33.968761,162.042465 
	C25.684847,161.920013 17.397867,162.004822 9.112105,162.007248 
	C8.013266,157.481232 6.914426,152.955231 5.485568,148.240082 
	C5.109068,144.003342 5.062585,139.955719 5.090291,135.448822 
z"/>
<path fill="#FF5128" opacity="1.000000" stroke="none" 
	d="
M169.546814,2.094154 
	C170.341736,5.161164 170.672180,8.155816 171.004272,11.570188 
	C156.199646,5.953132 140.755493,4.138417 124.900085,4.981546 
	C122.915001,5.087105 120.918739,4.982533 118.463722,4.904024 
	C117.452461,1.569039 119.717232,1.994925 121.693710,1.996620 
	C137.489914,2.010160 153.286133,2.014581 169.546814,2.094154 
z"/>
<path fill="#F3F6F7" opacity="1.000000" stroke="none" 
	d="
M44.151985,162.843140 
	C44.113544,162.137497 44.075104,161.431854 44.519348,160.353790 
	C47.499252,160.001801 49.996498,160.041962 52.493690,160.039215 
	C62.481266,160.028244 65.232460,157.293549 65.267166,147.301208 
	C65.291267,140.358032 65.271790,133.414719 65.271790,126.037247 
	C70.984077,126.037247 76.173500,126.518173 81.212685,125.855896 
	C84.209351,125.462059 88.027962,124.009987 89.620224,121.734436 
	C93.152306,116.686607 92.780647,110.518730 90.303352,105.065994 
	C88.167763,100.365387 83.296715,99.998352 78.666885,99.992874 
	C74.272423,99.987671 69.877953,99.991753 65.391022,99.991753 
	C65.459839,94.433739 68.371758,93.124168 72.521797,93.019463 
	C79.651428,92.839584 86.777740,92.527679 93.660454,92.280022 
	C93.473251,94.828133 93.042755,98.104568 93.024612,101.383301 
	C92.947205,115.369232 92.991676,129.355835 92.991684,143.342194 
	C92.991692,158.291153 95.024940,160.280182 110.062813,160.042160 
	C117.956024,159.917221 120.972794,156.993958 121.025238,149.154510 
	C121.094284,138.831696 121.194656,128.505157 120.996185,118.185715 
	C120.827362,109.407509 119.850304,100.624825 120.115738,91.870956 
	C120.191612,89.368591 118.507195,84.440247 123.986671,83.931404 
	C126.041847,84.637367 128.097015,85.343330 130.519043,86.100403 
	C122.355125,90.199615 122.836830,97.810112 122.945747,105.509224 
	C123.143509,119.488541 122.981934,133.472702 123.008858,147.454758 
	C123.026604,156.673340 126.411461,159.996262 135.702118,160.031204 
	C137.200180,160.036835 138.698776,160.056534 140.196289,160.027267 
	C147.961655,159.875534 150.961853,156.868942 151.016449,148.975403 
	C151.080917,139.654434 150.992233,130.332458 151.046219,121.011368 
	C151.081665,114.891014 154.736893,112.254982 161.323181,113.971161 
	C159.505478,127.730331 161.534973,140.667007 171.573471,151.944092 
	C169.101837,160.730331 166.576508,168.883392 164.131027,177.060349 
	C163.792526,178.192139 163.848755,179.441971 163.372681,180.725342 
	C159.346695,184.872101 155.670288,188.930649 151.711090,193.164978 
	C145.231537,197.456528 139.034760,201.572327 132.467987,205.769638 
	C122.681541,207.825134 113.265396,211.361099 103.848534,211.362991 
	C92.986244,211.365158 82.606033,206.913452 72.911186,201.503494 
	C70.944710,200.406143 67.846687,200.133820 65.687202,200.810867 
	C59.241692,202.831680 53.043137,205.627136 46.656582,207.857986 
	C45.016125,208.431000 43.038021,208.037384 41.555717,208.014267 
	C44.184803,202.289841 46.473202,196.638977 48.950867,190.671997 
	C50.045410,186.520187 52.254608,182.422165 51.548172,178.910721 
	C50.507130,173.736053 47.388653,168.979324 45.111034,163.747253 
	C44.732811,163.247665 44.398548,163.045441 44.086128,162.874939 
	C44.107971,162.906677 44.151989,162.843140 44.151985,162.843140 
z"/>
<path fill="#45C599" opacity="1.000000" stroke="none" 
	d="
M167.992279,105.232414 
	C170.026382,102.863541 171.912949,100.346161 174.121201,98.152611 
	C181.893112,90.432480 191.249908,88.219055 201.646576,91.194656 
	C211.093353,93.898415 216.022141,101.010010 218.040359,110.170837 
	C219.068390,114.837189 219.611725,119.685455 219.691666,124.462906 
	C219.761597,128.642426 217.501953,131.169907 212.793533,131.086472 
	C204.164886,130.933517 195.531586,131.042892 186.479172,131.042892 
	C188.252365,136.550812 192.216095,138.778336 197.061386,138.782410 
	C201.478683,138.786118 205.956085,137.918594 210.300720,136.955612 
	C216.614807,135.556091 219.374298,137.485886 219.563400,143.999313 
	C219.792511,151.891037 218.809525,153.077988 211.316147,154.991745 
	C200.894058,157.653473 190.536911,158.449402 180.789246,152.969650 
	C168.034332,145.799377 162.008118,130.491837 165.431168,114.945930 
	C165.894714,112.840752 166.526794,110.772675 167.177094,108.019028 
	C167.512985,106.644562 167.752625,105.938484 167.992279,105.232414 
M213.717239,112.064941 
	C210.023758,100.237297 204.327484,95.175278 194.520126,95.005341 
	C183.540497,94.815086 174.628738,100.916573 171.410431,111.908005 
	C169.998993,116.728508 169.748474,122.088425 169.991333,127.154495 
	C170.594788,139.742783 179.331223,149.728363 191.700928,151.501633 
	C197.000259,152.261337 202.640900,151.514496 208.010727,150.694366 
	C215.271896,149.585358 215.370148,149.050827 214.311798,142.470047 
	C207.000290,142.668961 199.723663,143.716583 192.691635,142.828140 
	C185.098282,141.868774 180.799362,135.097702 180.400116,125.828217 
	C191.799301,125.828217 203.184402,125.828217 215.153137,125.828217 
	C214.683548,121.085251 214.277588,116.984810 213.717239,112.064941 
z"/>
<path fill="#35C398" opacity="1.000000" stroke="none" 
	d="
M151.993881,192.989212 
	C155.670288,188.930649 159.346695,184.872101 163.775970,180.879044 
	C169.687408,181.560684 174.845947,182.176819 180.453308,182.860931 
	C183.910202,182.897507 186.918274,182.866135 189.926361,182.834747 
	C196.990021,180.571625 204.337982,178.929245 211.033600,175.862564 
	C217.153458,173.059616 222.567429,168.715515 228.700165,165.325439 
	C235.115662,166.075287 241.123459,166.550262 247.131256,167.025253 
	C245.176071,172.107895 243.220886,177.190552 241.200134,182.625671 
	C239.955917,185.211472 238.777267,187.444794 237.031281,189.565659 
	C234.666946,189.302124 232.870102,189.022003 231.072891,189.019592 
	C208.691772,188.989624 186.310349,189.052200 163.929688,188.945648 
	C160.435791,188.929031 157.434464,189.288818 155.095551,192.259216 
	C154.581604,192.911942 153.054443,192.766891 151.993881,192.989212 
z"/>
<path fill="#40C69A" opacity="1.000000" stroke="none" 
	d="
M167.648666,104.960991 
	C167.752625,105.938484 167.512985,106.644562 167.164551,107.612640 
	C164.325684,108.276230 161.590729,109.043228 158.866562,109.006592 
	C152.341461,108.918823 147.057648,113.753105 147.043167,120.287239 
	C147.021774,129.942505 147.077164,139.598083 147.021332,149.253067 
	C146.989136,154.820831 145.815216,155.921951 140.235153,156.036896 
	C127.257561,156.304199 126.995964,156.052429 126.995964,143.295197 
	C126.995956,129.145172 126.994324,114.995140 126.996567,100.845116 
	C126.997955,92.065956 128.045822,90.843910 136.624908,91.080978 
	C139.649506,91.164558 142.637650,92.281044 145.662979,92.808067 
	C146.500443,92.953957 147.449280,92.807014 148.281403,92.566948 
	C150.188492,92.016747 152.022568,91.196533 153.943649,90.714607 
	C163.859467,88.227127 166.928436,90.613220 167.016281,100.731773 
	C167.027740,102.051773 167.204727,103.370338 167.648666,104.960991 
M133.732254,96.030602 
	C133.155243,97.506355 132.093414,98.976898 132.077499,100.458672 
	C131.943588,112.931839 132.001099,125.407066 132.001053,137.881668 
	C132.001022,142.149887 132.001053,146.418106 132.001053,150.670990 
	C135.677567,150.670990 138.722778,150.670990 142.043991,150.670990 
	C142.043991,139.839951 141.917465,129.376495 142.142059,118.920570 
	C142.191849,116.603104 143.009720,114.001076 144.286392,112.066162 
	C148.507935,105.668053 154.532166,102.907303 162.272964,104.651909 
	C162.272964,101.358253 162.272964,98.329384 162.272964,94.209923 
	C157.987000,95.226341 154.055069,95.479477 150.824585,97.116714 
	C147.619003,98.741341 145.119659,101.759476 142.190536,104.269341 
	C142.071548,101.600571 141.956558,99.021439 141.822113,96.005585 
	C139.251648,96.005585 136.957520,96.005585 133.732254,96.030602 
z"/>
<path fill="#FBBD01" opacity="1.000000" stroke="none" 
	d="
M190.002441,182.494232 
	C186.918274,182.866135 183.910202,182.897507 180.451385,182.406311 
	C179.999817,177.419586 179.862701,172.949982 180.041504,168.493057 
	C180.183212,164.960419 180.712158,161.443298 181.069153,157.919296 
	C190.671600,161.005325 200.362823,162.452805 211.232666,158.636673 
	C209.057922,166.975143 204.903702,172.608673 198.927582,176.925613 
	C196.162094,178.923309 193.039322,180.426376 190.002441,182.494232 
z"/>
<path fill="#2EBF94" opacity="1.000000" stroke="none" 
	d="
M247.389008,166.869278 
	C241.123459,166.550262 235.115662,166.075287 229.014221,165.187531 
	C233.798492,158.756454 239.320969,153.137772 243.370544,146.605942 
	C247.309647,140.252319 249.739670,132.963135 253.735413,125.995003 
	C252.928085,134.110001 252.366257,142.259628 251.228485,150.328018 
	C250.450012,155.848358 248.868988,161.255539 247.389008,166.869278 
z"/>
<path fill="#FAA806" opacity="1.000000" stroke="none" 
	d="
M180.850800,157.665405 
	C180.712158,161.443298 180.183212,164.960419 180.041504,168.493057 
	C179.862701,172.949982 179.999817,177.419586 180.002579,182.338333 
	C174.845947,182.176819 169.687408,181.560684 164.125549,180.790863 
	C163.848755,179.441971 163.792526,178.192139 164.131027,177.060349 
	C166.576508,168.883392 169.101837,160.730331 171.766418,152.205643 
	C174.831482,153.698242 177.731949,155.554886 180.850800,157.665405 
z"/>
<path fill="#19B98E" opacity="1.000000" stroke="none" 
	d="
M243.834549,82.021744 
	C244.247925,83.069237 244.788910,84.085884 245.050888,85.169960 
	C245.851822,88.484207 247.892578,92.265633 246.978729,95.055489 
	C245.442703,99.744789 233.525726,107.469765 229.251419,107.880630 
	C229.251419,99.845490 229.251419,91.840782 229.752808,83.417435 
	C234.780975,82.673111 239.307770,82.347427 243.834549,82.021744 
z"/>
<path fill="#14B68C" opacity="1.000000" stroke="none" 
	d="
M243.890717,81.761505 
	C239.307770,82.347427 234.780975,82.673111 229.816833,82.999886 
	C227.075287,71.063683 224.771088,59.126377 222.483719,47.276226 
	C230.335770,55.521671 236.596039,65.489647 241.960388,76.779587 
	C242.310150,77.622490 242.529129,77.841377 242.824921,77.983414 
	C242.883255,78.404388 242.941589,78.825363 243.082993,79.791016 
	C243.310089,80.627922 243.529343,80.843773 243.823807,80.983238 
	C243.864838,81.155907 243.905853,81.328583 243.890717,81.761505 
z"/>
<path fill="#19B98E" opacity="1.000000" stroke="none" 
	d="
M243.842133,80.725098 
	C243.529343,80.843773 243.310089,80.627922 243.100540,80.110641 
	C243.310150,80.079376 243.585297,80.273170 243.842133,80.725098 
z"/>
<path fill="#19B98E" opacity="1.000000" stroke="none" 
	d="
M242.844849,77.724335 
	C242.529129,77.841377 242.310150,77.622490 242.104385,77.099564 
	C242.315445,77.070007 242.590103,77.267639 242.844849,77.724335 
z"/>
<path fill="#0AB58C" opacity="1.000000" stroke="none" 
	d="
M171.706696,42.049278 
	C171.864044,44.555443 171.540802,47.040646 170.716492,49.867912 
	C158.507172,51.223618 148.968384,56.001251 142.533890,66.164803 
	C138.620361,62.100853 134.706833,58.036907 130.248993,53.407726 
	C129.073013,55.087009 127.400681,57.475048 125.129654,59.693375 
	C122.732460,59.349110 120.934151,59.024651 119.135437,59.022484 
	C92.153839,58.990005 65.172112,58.970928 38.190613,59.033173 
	C34.399166,59.041920 30.608751,59.497532 26.817858,59.746296 
	C28.818180,56.633759 30.568773,53.319218 32.881809,50.459625 
	C35.796650,46.856026 39.170818,43.623962 42.655281,40.074585 
	C44.737297,40.611710 46.509132,41.906670 48.284657,41.911758 
	C88.432022,42.026817 128.579803,42.000343 168.727493,42.001911 
	C169.560364,42.001945 170.393219,42.019127 171.706696,42.049278 
z"/>
<path fill="#3EC79B" opacity="1.000000" stroke="none" 
	d="
M41.215034,208.087845 
	C43.038021,208.037384 45.016125,208.431000 46.656582,207.857986 
	C53.043137,205.627136 59.241692,202.831680 65.687202,200.810867 
	C67.846687,200.133820 70.944710,200.406143 72.911186,201.503494 
	C82.606033,206.913452 92.986244,211.365158 103.848534,211.362991 
	C113.265396,211.361099 122.681541,207.825134 132.699921,206.097656 
	C164.487885,205.895844 195.673965,205.447556 226.860031,204.999283 
	C221.935608,210.346909 217.011185,215.694550 211.798981,221.145538 
	C209.687622,221.165939 207.864059,221.010986 206.040451,221.010513 
	C154.847366,220.997452 103.654274,220.995956 52.461189,221.018417 
	C50.824192,221.019135 49.187317,221.291992 47.258205,221.744080 
	C42.047256,216.912125 37.128487,211.774094 32.458729,206.328094 
	C35.543507,206.709366 38.379272,207.398605 41.215034,208.087845 
z"/>
<path fill="#34C498" opacity="1.000000" stroke="none" 
	d="
M45.154995,164.044586 
	C47.388653,168.979324 50.507130,173.736053 51.548172,178.910721 
	C52.254608,182.422165 50.045410,186.520187 48.545418,190.661469 
	C42.000618,190.644699 36.052876,190.264221 30.099468,190.024109 
	C27.045504,189.900925 23.981428,190.028412 20.921921,190.042618 
	C17.277473,181.618698 13.633030,173.194794 9.903088,164.206268 
	C9.653291,163.350967 9.416100,163.143692 9.106014,163.019852 
	C9.090642,162.850998 9.075269,162.682144 9.086000,162.260284 
	C17.397867,162.004822 25.684847,161.920013 33.968761,162.042465 
	C37.077999,162.088425 40.180119,162.615952 43.718735,162.883530 
	C44.151989,162.843140 44.107971,162.906677 44.183380,163.142441 
	C44.557522,163.600342 44.856258,163.822464 45.154995,164.044586 
z"/>
<path fill="#3BC69A" opacity="1.000000" stroke="none" 
	d="
M20.975994,190.390472 
	C23.981428,190.028412 27.045504,189.900925 30.099468,190.024109 
	C36.052876,190.264221 42.000618,190.644699 48.356155,190.977585 
	C46.473202,196.638977 44.184803,202.289841 41.555717,208.014267 
	C38.379272,207.398605 35.543507,206.709366 32.306789,206.022705 
	C28.280584,200.929611 24.655327,195.833984 20.975994,190.390472 
z"/>
<path fill="#30BD92" opacity="1.000000" stroke="none" 
	d="
M9.154905,163.260986 
	C9.416100,163.143692 9.653291,163.350967 9.893415,163.871002 
	C9.643138,163.991669 9.387989,163.792267 9.154905,163.260986 
z"/>
<path fill="#0EB68D" opacity="1.000000" stroke="none" 
	d="
M26.824728,59.780323 
	C30.608751,59.497532 34.399166,59.041920 38.190613,59.033173 
	C65.172112,58.970928 92.153839,58.990005 119.135437,59.022484 
	C120.934151,59.024651 122.732460,59.349110 124.811592,59.848793 
	C123.618683,63.440384 122.145142,66.706848 119.980042,70.087624 
	C111.164124,65.640381 103.030220,65.449654 95.594376,69.575272 
	C91.412407,68.626518 87.811157,67.191498 84.175537,67.098381 
	C72.373573,66.796097 60.558838,66.945015 48.749390,66.999886 
	C41.130390,67.035286 38.148685,69.530731 36.043663,76.996536 
	C29.054909,77.307213 22.501535,77.617447 15.948164,77.927681 
	C18.399611,73.049683 20.851059,68.171684 23.958973,63.109985 
	C25.365208,61.909302 26.114977,60.892326 26.864746,59.875355 
	C26.864746,59.875355 26.831598,59.814350 26.824728,59.780323 
z"/>
<path fill="#15B98F" opacity="1.000000" stroke="none" 
	d="
M15.664391,78.141380 
	C22.501535,77.617447 29.054909,77.307213 36.131065,77.457535 
	C36.596920,86.610718 36.539989,95.303352 36.483059,103.995987 
	C30.225006,103.997322 23.956892,103.787437 17.712950,104.084930 
	C14.355303,104.244919 11.039132,105.275429 7.307669,105.941864 
	C6.952706,105.521599 6.994320,105.072594 7.323417,104.069794 
	C7.731190,102.649429 7.851483,101.782867 7.971776,100.916306 
	C10.441389,93.395897 12.911002,85.875488 15.664391,78.141380 
z"/>
<path fill="#0AB58C" opacity="1.000000" stroke="none" 
	d="
M26.527882,59.895149 
	C26.114977,60.892326 25.365208,61.909302 24.259720,62.946915 
	C24.666340,61.950016 25.428679,60.932480 26.527882,59.895149 
z"/>
<path fill="#1FBD92" opacity="1.000000" stroke="none" 
	d="
M7.700197,101.119514 
	C7.851483,101.782867 7.731190,102.649429 7.366613,103.734238 
	C7.224425,103.075897 7.326521,102.199310 7.700197,101.119514 
z"/>
<path fill="#3AC69A" opacity="1.000000" stroke="none" 
	d="
M227.033127,204.698975 
	C195.673965,205.447556 164.487885,205.895844 133.069901,206.016113 
	C139.034760,201.572327 145.231537,197.456528 151.711090,193.164978 
	C153.054443,192.766891 154.581604,192.911942 155.095551,192.259216 
	C157.434464,189.288818 160.435791,188.929031 163.929688,188.945648 
	C186.310349,189.052200 208.691772,188.989624 231.072891,189.019592 
	C232.870102,189.022003 234.666946,189.302124 236.754089,189.764221 
	C233.764893,194.849716 230.485550,199.624191 227.033127,204.698975 
z"/>
<path fill="#F8693B" opacity="1.000000" stroke="none" 
	d="
M36.570751,104.456757 
	C36.539989,95.303352 36.596920,86.610718 36.566448,77.457092 
	C38.148685,69.530731 41.130390,67.035286 48.749390,66.999886 
	C60.558838,66.945015 72.373573,66.796097 84.175537,67.098381 
	C87.811157,67.191498 91.412407,68.626518 95.594376,69.575272 
	C103.030220,65.449654 111.164124,65.640381 119.667786,70.295334 
	C120.361610,73.339905 120.459290,76.337753 121.080330,79.222946 
	C121.400581,80.710709 122.651581,81.998131 123.734352,83.653740 
	C118.507195,84.440247 120.191612,89.368591 120.115738,91.870956 
	C119.850304,100.624825 120.827362,109.407509 120.996185,118.185715 
	C121.194656,128.505157 121.094284,138.831696 121.025238,149.154510 
	C120.972794,156.993958 117.956024,159.917221 110.062813,160.042160 
	C95.024940,160.280182 92.991692,158.291153 92.991684,143.342194 
	C92.991676,129.355835 92.947205,115.369232 93.024612,101.383301 
	C93.042755,98.104568 93.473251,94.828133 93.660454,92.280022 
	C86.777740,92.527679 79.651428,92.839584 72.521797,93.019463 
	C68.371758,93.124168 65.459839,94.433739 65.391022,99.991753 
	C69.877953,99.991753 74.272423,99.987671 78.666885,99.992874 
	C83.296715,99.998352 88.167763,100.365387 90.303352,105.065994 
	C92.780647,110.518730 93.152306,116.686607 89.620224,121.734436 
	C88.027962,124.009987 84.209351,125.462059 81.212685,125.855896 
	C76.173500,126.518173 70.984077,126.037247 65.271790,126.037247 
	C65.271790,133.414719 65.291267,140.358032 65.267166,147.301208 
	C65.232460,157.293549 62.481266,160.028244 52.493690,160.039215 
	C49.996498,160.041962 47.499252,160.001801 44.541946,160.001068 
	C38.454605,159.218506 37.185757,154.918030 36.855335,150.361572 
	C36.483482,145.233871 36.710087,140.062790 36.580956,134.450867 
	C36.543175,124.299965 36.600807,114.608742 36.570751,104.456757 
M62.501850,71.004822 
	C57.668835,71.005280 52.833836,70.919090 48.003334,71.029549 
	C42.730801,71.150116 40.822277,73.086990 40.776665,78.349762 
	C40.707336,86.348648 40.757217,94.348572 40.757370,102.348053 
	C40.757671,117.847054 40.712467,133.346268 40.783283,148.844940 
	C40.809486,154.579376 42.259712,155.919952 47.878086,156.023743 
	C49.044285,156.045288 50.211212,156.028061 51.377804,156.027756 
	C60.725517,156.025375 61.238400,155.510712 61.242096,146.089569 
	C61.245209,138.155014 61.242737,130.220474 61.242737,122.024216 
	C68.305611,122.024216 74.641205,122.256287 80.941933,121.889412 
	C82.954437,121.772224 85.720154,120.585732 86.692604,119.000076 
	C91.262932,111.547798 86.870590,104.035873 78.241386,104.008202 
	C72.662407,103.990318 67.083321,104.004837 61.570805,104.004837 
	C61.570805,98.580536 61.570805,93.993301 61.570805,89.026939 
	C69.532974,89.026939 77.173279,89.053642 84.813301,89.018585 
	C91.048813,88.989975 92.793236,87.089531 92.853157,80.419548 
	C92.917961,73.204849 91.297607,71.148590 84.999153,71.035858 
	C77.835236,70.907631 70.667274,71.005325 62.501850,71.004822 
M97.010612,138.486816 
	C97.010612,140.152756 97.010612,141.818710 97.010620,143.484650 
	C97.010628,155.902969 97.369759,156.249161 110.015030,156.021271 
	C115.797462,155.917068 116.996269,154.762604 117.008896,148.882080 
	C117.044678,132.222473 117.108482,115.561829 116.931076,98.904037 
	C116.903450,96.309746 115.669579,93.728317 114.831665,90.521561 
	C117.645164,87.037170 118.343117,75.695312 115.316002,72.705299 
	C112.777863,70.198296 101.137077,70.212074 98.666405,72.725006 
	C95.606888,75.836853 96.561340,86.874741 99.501541,90.294502 
	C98.549438,93.624969 97.164925,96.304916 97.115463,99.009293 
	C96.880943,111.832962 97.010651,124.663284 97.010612,138.486816 
z"/>
<path fill="#80D4BF" opacity="1.000000" stroke="none" 
	d="
M142.756622,66.477524 
	C148.968384,56.001251 158.507172,51.223618 170.626648,50.290939 
	C169.954514,56.668739 166.749573,61.803123 161.838211,65.689713 
	C155.934097,70.361923 149.519043,70.761269 142.756622,66.477524 
z"/>
<path fill="#30BD92" opacity="1.000000" stroke="none" 
	d="
M45.111034,163.747253 
	C44.856258,163.822464 44.557522,163.600342 44.161537,163.110703 
	C44.398548,163.045441 44.732811,163.247665 45.111034,163.747253 
z"/>
<path fill="#FAFDFC" opacity="1.000000" stroke="none" 
	d="
M213.794434,112.474655 
	C214.277588,116.984810 214.683548,121.085251 215.153137,125.828217 
	C203.184402,125.828217 191.799301,125.828217 180.400116,125.828217 
	C180.799362,135.097702 185.098282,141.868774 192.691635,142.828140 
	C199.723663,143.716583 207.000290,142.668961 214.311798,142.470047 
	C215.370148,149.050827 215.271896,149.585358 208.010727,150.694366 
	C202.640900,151.514496 197.000259,152.261337 191.700928,151.501633 
	C179.331223,149.728363 170.594788,139.742783 169.991333,127.154495 
	C169.748474,122.088425 169.998993,116.728508 171.410431,111.908005 
	C174.628738,100.916573 183.540497,94.815086 194.520126,95.005341 
	C204.327484,95.175278 210.023758,100.237297 213.794434,112.474655 
M193.402084,103.055183 
	C184.745926,103.966362 180.518448,109.000549 181.221344,117.743576 
	C188.760239,117.743576 196.311096,117.743576 203.833191,117.743576 
	C204.771286,108.922714 202.142654,104.998665 193.402084,103.055183 
z"/>
<path fill="#FDFEFE" opacity="1.000000" stroke="none" 
	d="
M134.197830,96.018097 
	C136.957520,96.005585 139.251648,96.005585 141.822113,96.005585 
	C141.956558,99.021439 142.071548,101.600571 142.190536,104.269341 
	C145.119659,101.759476 147.619003,98.741341 150.824585,97.116714 
	C154.055069,95.479477 157.987000,95.226341 162.272964,94.209923 
	C162.272964,98.329384 162.272964,101.358253 162.272964,104.651909 
	C154.532166,102.907303 148.507935,105.668053 144.286392,112.066162 
	C143.009720,114.001076 142.191849,116.603104 142.142059,118.920570 
	C141.917465,129.376495 142.043991,139.839951 142.043991,150.670990 
	C138.722778,150.670990 135.677567,150.670990 132.001053,150.670990 
	C132.001053,146.418106 132.001022,142.149887 132.001053,137.881668 
	C132.001099,125.407066 131.943588,112.931839 132.077499,100.458672 
	C132.093414,98.976898 133.155243,97.506355 134.197830,96.018097 
z"/>
<path fill="#47C79D" opacity="1.000000" stroke="none" 
	d="
M63.001461,71.004822 
	C70.667274,71.005325 77.835236,70.907631 84.999153,71.035858 
	C91.297607,71.148590 92.917961,73.204849 92.853157,80.419548 
	C92.793236,87.089531 91.048813,88.989975 84.813301,89.018585 
	C77.173279,89.053642 69.532974,89.026939 61.570805,89.026939 
	C61.570805,93.993301 61.570805,98.580536 61.570805,104.004837 
	C67.083321,104.004837 72.662407,103.990318 78.241386,104.008202 
	C86.870590,104.035873 91.262932,111.547798 86.692604,119.000076 
	C85.720154,120.585732 82.954437,121.772224 80.941933,121.889412 
	C74.641205,122.256287 68.305611,122.024216 61.242737,122.024216 
	C61.242737,130.220474 61.245209,138.155014 61.242096,146.089569 
	C61.238400,155.510712 60.725517,156.025375 51.377804,156.027756 
	C50.211212,156.028061 49.044285,156.045288 47.878086,156.023743 
	C42.259712,155.919952 40.809486,154.579376 40.783283,148.844940 
	C40.712467,133.346268 40.757671,117.847054 40.757370,102.348053 
	C40.757217,94.348572 40.707336,86.348648 40.776665,78.349762 
	C40.822277,73.086990 42.730801,71.150116 48.003334,71.029549 
	C52.833836,70.919090 57.668835,71.005280 63.001461,71.004822 
M45.717327,144.433075 
	C45.717327,146.513962 45.717327,148.594833 45.717327,150.740173 
	C49.584064,150.740173 52.671242,150.740173 56.381042,150.740173 
	C56.381042,139.426498 56.381042,128.379990 56.381042,116.750069 
	C65.554794,116.750069 74.104530,116.750069 82.487053,116.750069 
	C82.487053,113.887154 82.487053,111.633324 82.487053,108.967773 
	C73.726013,108.967773 65.300964,108.967773 56.621769,108.967773 
	C56.621769,100.502327 56.621769,92.459290 56.621769,83.834389 
	C67.169846,83.834389 77.391403,83.834389 87.578339,83.834389 
	C87.578339,80.983887 87.578339,78.727608 87.578339,76.333496 
	C73.572357,76.333496 59.856178,76.333496 45.716953,76.333496 
	C45.716953,98.910393 45.716953,121.177719 45.717327,144.433075 
z"/>
<path fill="#40C599" opacity="1.000000" stroke="none" 
	d="
M97.010612,137.989029 
	C97.010651,124.663284 96.880943,111.832962 97.115463,99.009293 
	C97.164925,96.304916 98.549438,93.624969 99.501541,90.294502 
	C96.561340,86.874741 95.606888,75.836853 98.666405,72.725006 
	C101.137077,70.212074 112.777863,70.198296 115.316002,72.705299 
	C118.343117,75.695312 117.645164,87.037170 114.831665,90.521561 
	C115.669579,93.728317 116.903450,96.309746 116.931076,98.904037 
	C117.108482,115.561829 117.044678,132.222473 117.008896,148.882080 
	C116.996269,154.762604 115.797462,155.917068 110.015030,156.021271 
	C97.369759,156.249161 97.010628,155.902969 97.010620,143.484650 
	C97.010612,141.818710 97.010612,140.152756 97.010612,137.989029 
M102.156944,150.146835 
	C105.288589,150.531708 108.420235,150.916565 111.697891,151.319366 
	C111.697891,132.391830 111.697891,114.355179 111.697891,96.402817 
	C108.294159,96.402817 105.248581,96.402817 102.030319,96.402817 
	C102.030319,114.268112 102.030319,131.737289 102.156944,150.146835 
M104.670113,86.034134 
	C107.072510,86.034134 109.474907,86.034134 111.748085,86.034134 
	C111.748085,82.267105 111.748085,79.336632 111.748085,76.341148 
	C108.402634,76.341148 105.355392,76.341148 101.129341,76.341148 
	C102.104797,79.948944 102.923958,82.978668 104.670113,86.034134 
z"/>
<path fill="#41C69A" opacity="1.000000" stroke="none" 
	d="
M193.804214,103.066666 
	C202.142654,104.998665 204.771286,108.922714 203.833191,117.743576 
	C196.311096,117.743576 188.760239,117.743576 181.221344,117.743576 
	C180.518448,109.000549 184.745926,103.966362 193.804214,103.066666 
M191.657440,113.004608 
	C194.018097,113.004608 196.378754,113.004608 198.739410,113.004608 
	C198.921341,112.312073 199.103287,111.619545 199.285217,110.927010 
	C197.003128,109.966476 194.705887,108.233879 192.443512,108.278275 
	C190.466995,108.317070 188.529739,110.356178 186.575150,111.511566 
	C186.834656,111.956383 187.094177,112.401207 187.353683,112.846024 
	C188.497620,112.898849 189.641541,112.951675 191.657440,113.004608 
z"/>
<path fill="#FEFFFF" opacity="1.000000" stroke="none" 
	d="
M45.717140,143.939056 
	C45.716953,121.177719 45.716953,98.910393 45.716953,76.333496 
	C59.856178,76.333496 73.572357,76.333496 87.578339,76.333496 
	C87.578339,78.727608 87.578339,80.983887 87.578339,83.834389 
	C77.391403,83.834389 67.169846,83.834389 56.621769,83.834389 
	C56.621769,92.459290 56.621769,100.502327 56.621769,108.967773 
	C65.300964,108.967773 73.726013,108.967773 82.487053,108.967773 
	C82.487053,111.633324 82.487053,113.887154 82.487053,116.750069 
	C74.104530,116.750069 65.554794,116.750069 56.381042,116.750069 
	C56.381042,128.379990 56.381042,139.426498 56.381042,150.740173 
	C52.671242,150.740173 49.584064,150.740173 45.717327,150.740173 
	C45.717327,148.594833 45.717327,146.513962 45.717140,143.939056 
z"/>
<path fill="#FFFFFF" opacity="1.000000" stroke="none" 
	d="
M102.093628,149.676651 
	C102.030319,131.737289 102.030319,114.268112 102.030319,96.402817 
	C105.248581,96.402817 108.294159,96.402817 111.697891,96.402817 
	C111.697891,114.355179 111.697891,132.391830 111.697891,151.319366 
	C108.420235,150.916565 105.288589,150.531708 102.093628,149.676651 
z"/>
<path fill="#FFFFFF" opacity="1.000000" stroke="none" 
	d="
M104.206619,86.021263 
	C102.923958,82.978668 102.104797,79.948944 101.129341,76.341148 
	C105.355392,76.341148 108.402634,76.341148 111.748085,76.341148 
	C111.748085,79.336632 111.748085,82.267105 111.748085,86.034134 
	C109.474907,86.034134 107.072510,86.034134 104.206619,86.021263 
z"/>
<path fill="#FA6839" opacity="1.000000" stroke="none" 
	d="
M191.221466,113.004555 
	C189.641541,112.951675 188.497620,112.898849 187.353683,112.846024 
	C187.094177,112.401207 186.834656,111.956383 186.575150,111.511566 
	C188.529739,110.356178 190.466995,108.317070 192.443512,108.278275 
	C194.705887,108.233879 197.003128,109.966476 199.285217,110.927010 
	C199.103287,111.619545 198.921341,112.312073 198.739410,113.004608 
	C196.378754,113.004608 194.018097,113.004608 191.221466,113.004555 
z"/>
</svg>