<svg version="1.1" id="Layer_1" xmlns="http://www.w3.org/2000/svg" xmlns:xlink="http://www.w3.org/1999/xlink" x="0px" y="0px"
	 width="100%" viewBox="0 0 256 256" enable-background="new 0 0 256 256" xml:space="preserve">
<path fill="#FFFFFF" opacity="1.000000" stroke="none" 
	d="
M1.000000,71.000000 
	C1.000000,47.333336 1.000000,24.166676 1.000000,1.000009 
	C86.333313,1.000006 171.666626,1.000006 256.999939,1.000003 
	C256.999969,86.333305 256.999969,171.666611 257.000000,256.999939 
	C171.666718,256.999939 86.333435,256.999939 1.000075,256.999969 
	C1.000000,195.166672 1.000000,133.333328 1.000000,71.000000 
M252.968002,129.089142 
	C252.911850,123.390411 252.855713,117.691681 252.932770,111.327667 
	C252.896713,110.879570 252.860641,110.431465 252.976273,109.059166 
	C252.976273,74.465614 252.976273,39.872063 252.976273,5.000000 
	C245.573242,5.000000 238.763947,4.985919 231.954712,5.002462 
	C203.963837,5.070465 175.972977,5.147779 147.053848,5.103721 
	C134.709503,5.143204 122.365166,5.182688 109.094139,5.030775 
	C74.496201,5.030775 39.898258,5.030775 5.192556,5.030775 
	C5.192556,40.397884 5.192556,75.197311 5.069087,110.739670 
	C5.107765,111.491280 5.146444,112.242889 5.030358,113.921143 
	C5.077269,122.277969 5.124180,130.634796 5.024783,139.886200 
	C5.069680,142.600601 5.114577,145.315018 5.021537,148.953918 
	C5.021537,183.534103 5.021537,218.114288 5.021537,252.878159 
	C40.376247,252.878159 75.159454,252.878159 110.877647,253.021744 
	C122.935822,252.970200 134.994003,252.918655 147.977753,252.982010 
	C182.890213,252.982010 217.802673,252.982010 252.832352,252.982010 
	C252.832352,217.600342 252.832352,182.814346 252.964203,147.276321 
	C252.921188,146.516129 252.878174,145.755920 252.969818,144.072403 
	C252.924255,139.379974 252.878708,134.687561 252.968002,129.089142 
z"/>
<path fill="#05B38A" opacity="1.000000" stroke="none" 
	d="
M110.020821,5.222173 
	C122.365166,5.182688 134.709503,5.143204 147.766815,5.427291 
	C157.579681,8.451854 166.863739,10.658327 175.738754,13.963230 
	C191.225281,19.730145 204.773224,28.682653 216.014587,41.326408 
	C214.508713,42.826706 213.061554,44.780487 211.528152,44.850674 
	C204.280106,45.182461 197.005188,45.115070 189.747833,44.908878 
	C188.156082,44.863655 186.596939,43.670971 185.104126,42.673615 
	C186.749573,40.044338 188.313675,37.748165 190.145416,35.059059 
	C187.682266,34.863617 185.922134,34.723957 183.805252,34.429176 
	C173.618927,33.869446 165.185974,37.524376 157.006042,43.151260 
	C153.277481,42.723549 149.999359,42.075829 146.716232,42.049438 
	C132.405746,41.934399 118.093208,41.918335 103.782509,42.020088 
	C84.676003,42.155945 65.570633,42.482738 46.464268,42.532597 
	C45.299793,42.535637 44.130856,40.828148 43.116119,39.622055 
	C47.172554,35.757812 50.730297,31.685610 55.044399,28.709980 
	C69.552208,18.703291 85.229553,11.099068 102.560631,7.234883 
	C105.072098,6.674920 107.535286,5.898454 110.020821,5.222173 
z"/>
<path fill="#42C89C" opacity="1.000000" stroke="none" 
	d="
M147.052170,252.867111 
	C134.994003,252.918655 122.935822,252.970200 110.277649,252.648315 
	C107.740738,251.866348 105.760315,251.600266 103.874550,251.024277 
	C96.308502,248.713287 88.602646,246.735138 81.261703,243.839798 
	C68.485031,238.800552 56.949947,231.592880 47.258495,221.744354 
	C48.689785,221.292297 49.829189,221.018829 50.968712,221.018356 
	C102.880165,220.997238 154.791626,220.993073 206.703049,221.036850 
	C208.114655,221.038040 209.525803,221.586349 210.646484,222.049622 
	C206.838531,225.167404 203.485077,228.341934 199.774323,231.021713 
	C186.858505,240.349106 172.549637,246.637604 156.998688,250.135895 
	C153.647949,250.889648 150.365875,251.948700 147.052170,252.867111 
z"/>
<path fill="#47704C" opacity="1.000000" stroke="none" 
	d="
M147.514954,252.924561 
	C150.365875,251.948700 153.647949,250.889648 156.998688,250.135895 
	C172.549637,246.637604 186.858505,240.349106 199.774323,231.021713 
	C203.485077,228.341934 206.838531,225.167404 210.973312,221.974060 
	C216.680405,216.152145 221.769989,210.575897 227.032623,204.699326 
	C230.149002,200.293427 233.092300,196.187836 236.316711,191.876953 
	C238.757385,187.127167 240.916931,182.582672 243.357361,177.812653 
	C245.452332,172.068802 247.266449,166.550491 249.371124,160.781021 
	C250.718567,156.362686 251.775452,152.195526 252.832352,148.028366 
	C252.832352,182.814346 252.832352,217.600342 252.832352,252.982010 
	C217.802673,252.982010 182.890213,252.982010 147.514954,252.924561 
z"/>
<path fill="#47704C" opacity="1.000000" stroke="none" 
	d="
M216.033539,40.912018 
	C204.773224,28.682653 191.225281,19.730145 175.738754,13.963230 
	C166.863739,10.658327 157.579681,8.451854 148.230957,5.486266 
	C175.972977,5.147779 203.963837,5.070465 231.954712,5.002462 
	C238.763947,4.985919 245.573242,5.000000 252.976273,5.000000 
	C252.976273,39.872063 252.976273,74.465614 252.617752,109.278702 
	C250.866791,104.317413 249.474350,99.136604 248.047775,93.574860 
	C244.692108,85.438957 241.370560,77.683983 237.895309,69.617218 
	C232.086365,58.632370 225.435486,48.720531 216.033539,40.912018 
z"/>
<path fill="#47704C" opacity="1.000000" stroke="none" 
	d="
M46.966663,222.050308 
	C56.949947,231.592880 68.485031,238.800552 81.261703,243.839798 
	C88.602646,246.735138 96.308502,248.713287 103.874550,251.024277 
	C105.760315,251.600266 107.740738,251.866348 109.810158,252.576508 
	C75.159454,252.878159 40.376247,252.878159 5.021537,252.878159 
	C5.021537,218.114288 5.021537,183.534103 5.420794,148.685059 
	C6.213112,149.616852 6.664308,150.802032 6.989073,152.020889 
	C8.321919,157.023224 9.616272,162.035797 10.844889,167.343719 
	C14.150621,175.109421 17.536255,182.576019 20.975977,190.390472 
	C24.655355,195.833939 28.280649,200.929535 32.057873,206.330536 
	C37.128757,211.774078 42.047710,216.912186 46.966663,222.050308 
z"/>
<path fill="#47704C" opacity="1.000000" stroke="none" 
	d="
M109.557480,5.126474 
	C107.535286,5.898454 105.072098,6.674920 102.560631,7.234883 
	C85.229553,11.099068 69.552208,18.703291 55.044399,28.709980 
	C50.730297,31.685610 47.172554,35.757812 42.813324,39.775330 
	C36.206390,47.807827 30.054371,55.392555 23.604004,63.137566 
	C20.853409,68.174805 18.401165,73.051765 15.664854,78.141960 
	C13.561141,83.553429 11.741494,88.751648 9.635445,94.191193 
	C7.963546,99.620583 6.578052,104.808655 5.192557,109.996735 
	C5.192556,75.197311 5.192556,40.397884 5.192556,5.030775 
	C39.898258,5.030775 74.496201,5.030775 109.557480,5.126474 
z"/>
<path fill="#21BD93" opacity="1.000000" stroke="none" 
	d="
M5.171092,138.991623 
	C5.124180,130.634796 5.077269,122.277969 5.518508,113.471390 
	C8.782193,113.347755 11.554666,113.920609 14.333821,113.955109 
	C23.795410,114.072563 33.260708,114.090897 42.721645,113.949692 
	C45.910187,113.902092 48.229473,114.775604 49.376427,118.159126 
	C47.248642,125.323875 45.202816,132.168259 42.759293,138.969452 
	C40.705082,138.286942 39.017937,137.028305 37.397015,137.108475 
	C26.651056,137.639984 15.719127,135.206650 5.171092,138.991623 
z"/>
<path fill="#2AC095" opacity="1.000000" stroke="none" 
	d="
M5.097938,139.438904 
	C15.719127,135.206650 26.651056,137.639984 37.397015,137.108475 
	C39.017937,137.028305 40.705082,138.286942 42.810219,139.433441 
	C44.005882,148.300339 44.752914,156.660080 45.078079,164.989868 
	C35.316525,164.328552 25.981846,163.462769 16.632948,163.263184 
	C14.757994,163.223145 12.828918,165.718353 10.924793,167.044617 
	C9.616272,162.035797 8.321919,157.023224 6.989073,152.020889 
	C6.664308,150.802032 6.213112,149.616852 5.489762,148.222809 
	C5.114577,145.315018 5.069680,142.600601 5.097938,139.438904 
z"/>
<path fill="#1ABB91" opacity="1.000000" stroke="none" 
	d="
M248.081909,93.955795 
	C249.474350,99.136604 250.866791,104.317413 252.541901,109.740799 
	C252.860641,110.431465 252.896713,110.879570 252.456512,111.675240 
	C249.203720,112.348541 246.433350,112.882500 243.649628,112.964851 
	C229.747314,113.376144 215.841492,113.668915 201.775482,113.688919 
	C200.048813,109.603172 198.483551,105.831886 196.957138,101.713272 
	C197.016876,100.902672 197.037750,100.439407 197.288010,99.791862 
	C197.986588,98.739433 198.455795,97.871300 199.317184,96.961998 
	C203.080902,96.280548 206.441971,95.162567 209.825958,95.088203 
	C220.641052,94.850525 231.465103,95.050720 242.284531,94.952972 
	C244.219833,94.935493 246.149597,94.303856 248.081909,93.955795 
z"/>
<path fill="#1ABB91" opacity="1.000000" stroke="none" 
	d="
M49.458389,117.838760 
	C48.229473,114.775604 45.910187,113.902092 42.721645,113.949692 
	C33.260708,114.090897 23.795410,114.072563 14.333821,113.955109 
	C11.554666,113.920609 8.782193,113.347755 5.595890,113.008072 
	C5.146444,112.242889 5.107765,111.491280 5.130822,110.368202 
	C6.578052,104.808655 7.963546,99.620583 9.866817,94.391586 
	C11.859856,94.900452 13.331579,95.916832 14.810926,95.928047 
	C30.133091,96.044266 45.456486,95.998413 60.787186,96.396301 
	C60.486202,98.958893 60.177567,101.122810 59.595337,103.437759 
	C56.033958,108.338783 52.746174,113.088776 49.458389,117.838760 
z"/>
<path fill="#2CC195" opacity="1.000000" stroke="none" 
	d="
M252.898285,147.652344 
	C251.775452,152.195526 250.718567,156.362686 248.894974,160.770020 
	C232.758850,161.006805 217.389206,161.044510 202.020325,160.951538 
	C199.936813,160.938950 197.857269,160.271286 195.977356,159.597260 
	C200.689407,154.835709 199.321625,149.403656 199.197540,144.069122 
	C217.400711,144.358765 235.117935,144.677246 252.835159,144.995728 
	C252.878174,145.755920 252.921188,146.516129 252.898285,147.652344 
z"/>
<path fill="#21BD92" opacity="1.000000" stroke="none" 
	d="
M201.936905,114.003372 
	C215.841492,113.668915 229.747314,113.376144 243.649628,112.964851 
	C246.433350,112.882500 249.203720,112.348541 252.389908,112.007881 
	C252.855713,117.691681 252.911850,123.390411 252.488632,129.531570 
	C249.223740,129.649323 246.439880,129.061554 243.652420,129.043961 
	C228.826935,128.950363 214.000549,128.999664 199.107635,128.586670 
	C197.342896,123.026672 195.644989,117.879494 194.326935,112.776703 
	C197.116821,113.215179 199.526871,113.609276 201.936905,114.003372 
z"/>
<path fill="#25BF94" opacity="1.000000" stroke="none" 
	d="
M199.174469,128.999481 
	C214.000549,128.999664 228.826935,128.950363 243.652420,129.043961 
	C246.439880,129.061554 249.223740,129.649323 252.421204,129.984558 
	C252.878708,134.687561 252.924255,139.379974 252.902496,144.534058 
	C235.117935,144.677246 217.400711,144.358765 198.928238,143.849335 
	C197.835403,142.586502 197.100159,141.463242 197.230881,140.451904 
	C197.726837,136.614792 198.503052,132.813904 199.174469,128.999481 
z"/>
<path fill="#0BB58C" opacity="1.000000" stroke="none" 
	d="
M23.902353,62.977283 
	C30.054371,55.392555 36.206390,47.807827 42.661201,40.069824 
	C44.130856,40.828148 45.299793,42.535637 46.464268,42.532597 
	C65.570633,42.482738 84.676003,42.155945 103.782509,42.020088 
	C118.093208,41.918335 132.405746,41.934399 146.716232,42.049438 
	C149.999359,42.075829 153.277481,42.723549 156.804138,43.430965 
	C147.492203,51.592052 141.984634,62.270584 136.503586,74.337227 
	C134.366074,69.736984 132.837723,66.283730 131.139755,62.915989 
	C130.746399,62.135815 129.774048,61.647579 128.594971,61.017258 
	C98.238243,61.006340 68.354164,60.914982 38.471619,61.088642 
	C33.611702,61.116882 28.758604,62.318192 23.902353,62.977283 
z"/>
<path fill="#FD6637" opacity="1.000000" stroke="none" 
	d="
M129.068115,61.025005 
	C129.774048,61.647579 130.746399,62.135815 131.139755,62.915989 
	C132.837723,66.283730 134.366074,69.736984 136.503586,74.337227 
	C141.984634,62.270584 147.492203,51.592052 157.252274,43.496910 
	C165.185974,37.524376 173.618927,33.869446 183.666809,34.795109 
	C176.890182,50.273453 169.895264,65.230736 162.494690,80.161362 
	C148.296127,80.398415 139.419937,87.634262 135.198578,100.274971 
	C133.539642,105.242577 130.728882,105.886353 127.155434,105.753189 
	C125.300560,101.246178 123.640533,97.212601 121.988525,92.750084 
	C121.645134,89.330040 121.293732,86.338928 121.063583,82.950150 
	C121.442001,80.368095 121.699158,78.183708 122.158707,75.689941 
	C124.596771,70.595375 126.832443,65.810188 129.068115,61.025005 
z"/>
<path fill="#FE441E" opacity="1.000000" stroke="none" 
	d="
M162.900345,80.188019 
	C169.895264,65.230736 176.890182,50.273453 184.023544,34.950233 
	C185.922134,34.723957 187.682266,34.863617 190.145416,35.059059 
	C188.313675,37.748165 186.749573,40.044338 184.819946,42.869385 
	C182.962479,46.628475 181.470566,49.858692 179.731842,53.365818 
	C179.029617,56.564152 178.071442,59.510109 178.212601,62.402416 
	C178.645340,71.269745 185.617554,75.093567 193.514648,71.069183 
	C194.975632,70.324654 196.428772,69.564774 197.942963,69.100494 
	C198.052795,69.577995 198.105225,69.766975 198.101990,70.421265 
	C199.431595,82.419342 196.050705,92.245842 186.627106,99.909050 
	C186.966843,100.341789 187.306595,100.774529 187.646332,101.207268 
	C190.783768,100.796898 193.921204,100.386520 197.058640,99.976151 
	C197.037750,100.439407 197.016876,100.902672 196.688919,101.901901 
	C194.830719,104.958878 193.279602,107.479874 191.438904,109.841507 
	C184.518555,104.804543 177.313583,102.591461 169.076996,104.535416 
	C168.631805,101.796852 168.999191,98.694122 165.264847,99.069626 
	C160.557632,99.542946 159.280792,96.697182 158.750351,92.546295 
	C160.163803,89.236496 161.617569,86.359444 162.822159,83.381584 
	C163.195892,82.457703 162.893311,81.260231 162.900345,80.188019 
z"/>
<path fill="#0CB68C" opacity="1.000000" stroke="none" 
	d="
M198.157654,69.955963 
	C198.105225,69.766975 198.052795,69.577995 197.842850,68.801529 
	C193.629639,61.010632 187.636887,56.074886 179.978653,53.088905 
	C181.470566,49.858692 182.962479,46.628475 184.738586,43.202484 
	C186.596939,43.670971 188.156082,44.863655 189.747833,44.908878 
	C197.005188,45.115070 204.280106,45.182461 211.528152,44.850674 
	C213.061554,44.780487 214.508713,42.826706 216.014587,41.326408 
	C225.435486,48.720531 232.086365,58.632370 237.655167,69.930077 
	C235.520935,71.036484 233.483459,71.873947 231.423447,71.933617 
	C225.118469,72.116211 218.803406,72.081612 212.495026,71.972336 
	C208.024277,71.894875 203.535980,71.496162 200.511612,75.838501 
	C199.573380,73.710938 198.865524,71.833450 198.157654,69.955963 
z"/>
<path fill="#3EC79B" opacity="1.000000" stroke="none" 
	d="
M47.258495,221.744354 
	C42.047710,216.912186 37.128757,211.774078 32.460281,206.328171 
	C35.548939,206.707672 38.387127,207.394943 41.413338,208.385757 
	C43.201069,208.475983 44.900757,208.538620 46.383129,208.001480 
	C52.718208,205.706070 58.904507,202.960236 65.328598,200.971542 
	C67.629738,200.259186 70.938400,200.375671 72.955055,201.546829 
	C92.321663,212.793625 112.215721,214.341843 133.133102,205.990753 
	C135.171677,206.563705 136.954437,206.967911 138.738007,206.971634 
	C159.888306,207.015686 181.041092,207.182404 202.187927,206.908478 
	C210.418686,206.801849 218.636093,205.666443 226.859589,204.999664 
	C221.769989,210.575897 216.680405,216.152145 211.263977,221.803955 
	C209.525803,221.586349 208.114655,221.038040 206.703049,221.036850 
	C154.791626,220.993073 102.880165,220.997238 50.968712,221.018356 
	C49.829189,221.018829 48.689785,221.292297 47.258495,221.744354 
z"/>
<path fill="#3AC69A" opacity="1.000000" stroke="none" 
	d="
M227.032639,204.699341 
	C218.636093,205.666443 210.418686,206.801849 202.187927,206.908478 
	C181.041092,207.182404 159.888306,207.015686 138.738007,206.971634 
	C136.954437,206.967911 135.171677,206.563705 133.365112,205.746674 
	C139.222214,201.414169 145.102737,197.680511 151.178696,194.203705 
	C152.836945,193.905518 154.282364,193.297913 155.766266,192.806549 
	C158.694321,191.836990 161.636307,190.151764 164.585403,190.123901 
	C187.471909,189.907501 210.361603,189.991760 233.249649,190.110886 
	C234.181702,190.115753 235.107101,191.396133 236.035599,192.082245 
	C233.092300,196.187836 230.149002,200.293427 227.032639,204.699341 
z"/>
<path fill="#35C498" opacity="1.000000" stroke="none" 
	d="
M236.316711,191.876953 
	C235.107101,191.396133 234.181702,190.115753 233.249649,190.110886 
	C210.361603,189.991760 187.471909,189.907501 164.585403,190.123901 
	C161.636307,190.151764 158.694321,191.836990 155.766266,192.806549 
	C154.282364,193.297913 152.836945,193.905518 151.293671,193.891602 
	C155.722382,187.523193 160.231537,181.723755 165.225128,175.947037 
	C175.370514,175.979828 185.031494,175.995102 194.692459,175.998749 
	C207.851486,176.003708 221.010559,176.013992 234.169540,175.989319 
	C237.311493,175.983429 240.804367,174.313858 243.076477,178.038177 
	C240.916931,182.582672 238.757385,187.127167 236.316711,191.876953 
z"/>
<path fill="#31C297" opacity="1.000000" stroke="none" 
	d="
M243.357361,177.812653 
	C240.804367,174.313858 237.311493,175.983429 234.169540,175.989319 
	C221.010559,176.013992 207.851486,176.003708 194.692459,175.998749 
	C185.031494,175.995102 175.370514,175.979828 165.314514,175.585281 
	C166.317291,171.140564 167.715118,167.080307 169.528122,163.021942 
	C178.949173,165.258850 187.491287,163.649979 195.775879,159.906937 
	C197.857269,160.271286 199.936813,160.938950 202.020325,160.951538 
	C217.389206,161.044510 232.758850,161.006805 248.604416,161.021210 
	C247.266449,166.550491 245.452332,172.068802 243.357361,177.812653 
z"/>
<path fill="#14B98F" opacity="1.000000" stroke="none" 
	d="
M200.741974,76.088585 
	C203.535980,71.496162 208.024277,71.894875 212.495026,71.972336 
	C218.803406,72.081612 225.118469,72.116211 231.423447,71.933617 
	C233.483459,71.873947 235.520935,71.036484 237.808868,70.241867 
	C241.370560,77.683983 244.692108,85.438957 248.047775,93.574860 
	C246.149597,94.303856 244.219833,94.935493 242.284531,94.952972 
	C231.465103,95.050720 220.641052,94.850525 209.825958,95.088203 
	C206.441971,95.162567 203.080902,96.280548 199.371735,96.568207 
	C199.603409,89.506592 200.172699,82.797585 200.741974,76.088585 
z"/>
<path fill="#34C498" opacity="1.000000" stroke="none" 
	d="
M10.844892,167.343719 
	C12.828918,165.718353 14.757994,163.223145 16.632948,163.263184 
	C25.981846,163.462769 35.316525,164.328552 45.247578,165.269257 
	C46.833076,168.015533 47.389000,170.775650 48.903320,172.828949 
	C53.487843,179.045212 52.390694,184.967316 48.352814,190.977798 
	C41.995995,190.644928 36.049641,190.264343 30.097624,190.024139 
	C27.044270,189.900909 23.980795,190.028427 20.921892,190.042633 
	C17.536255,182.576019 14.150621,175.109421 10.844892,167.343719 
z"/>
<path fill="#3BC69A" opacity="1.000000" stroke="none" 
	d="
M20.975979,190.390488 
	C23.980795,190.028427 27.044270,189.900909 30.097624,190.024139 
	C36.049641,190.264343 41.995995,190.644928 48.317287,191.333023 
	C48.029274,193.400848 47.460609,195.145996 46.689499,196.796570 
	C44.920563,200.582947 43.052898,204.323227 41.225319,208.082214 
	C38.387127,207.394943 35.548939,206.707672 32.308350,206.022766 
	C28.280649,200.929535 24.655355,195.833939 20.975979,190.390488 
z"/>
<path fill="#0FB78D" opacity="1.000000" stroke="none" 
	d="
M128.594955,61.017254 
	C126.832443,65.810188 124.596771,70.595375 121.738663,75.700638 
	C118.169022,76.347137 115.224762,76.926933 112.274185,76.961090 
	C80.166328,77.332855 48.057491,77.619141 15.948921,77.928719 
	C18.401165,73.051765 20.853409,68.174805 23.604004,63.137566 
	C28.758604,62.318192 33.611702,61.116882 38.471619,61.088642 
	C68.354164,60.914982 98.238243,61.006340 128.594955,61.017254 
z"/>
<path fill="#15B98F" opacity="1.000000" stroke="none" 
	d="
M15.664854,78.141960 
	C48.057491,77.619141 80.166328,77.332855 112.274185,76.961090 
	C115.224762,76.926933 118.169022,76.347137 121.536263,76.010025 
	C121.699158,78.183708 121.442001,80.368095 120.641731,82.870728 
	C105.073196,80.615799 90.655106,81.967766 76.782867,89.875137 
	C74.535164,89.951744 72.735123,89.847298 70.961960,90.019554 
	C66.672310,90.436264 62.627773,91.376434 60.779537,95.997627 
	C45.456486,95.998413 30.133091,96.044266 14.810926,95.928047 
	C13.331579,95.916832 11.859856,94.900452 10.153221,94.150276 
	C11.741494,88.751648 13.561141,83.553429 15.664854,78.141960 
z"/>
<path fill="#F3F6F7" opacity="1.000000" stroke="none" 
	d="
M41.413338,208.385757 
	C43.052898,204.323227 44.920563,200.582947 46.689499,196.796570 
	C47.460609,195.145996 48.029274,193.400848 48.725410,191.343430 
	C52.390694,184.967316 53.487843,179.045212 48.903320,172.828949 
	C47.389000,170.775650 46.833076,168.015533 45.669449,165.299194 
	C44.752914,156.660080 44.005882,148.300339 43.207920,139.476624 
	C45.202816,132.168259 47.248642,125.323875 49.376427,118.159126 
	C52.746174,113.088776 56.033958,108.338783 59.660522,103.878876 
	C60.016514,119.816063 59.991978,135.463379 60.067688,151.110214 
	C60.108589,159.562820 63.717442,162.950409 72.461655,163.016418 
	C81.564125,163.085129 85.518951,159.646774 85.721832,151.337051 
	C85.826271,147.059402 85.740181,142.777084 85.740181,138.386871 
	C90.762703,138.000580 95.268402,137.654037 100.139961,137.279358 
	C100.139961,141.486023 100.134903,145.459686 100.140923,149.433319 
	C100.158340,160.929092 108.578224,166.484222 119.311615,161.999557 
	C120.915588,161.329361 122.308372,160.153732 123.798859,159.211914 
	C127.213310,161.231857 130.761780,162.729431 134.372482,162.898529 
	C143.783691,163.339325 147.483292,159.570114 147.578873,150.275879 
	C147.625092,145.781845 147.549210,141.286499 147.602112,136.792618 
	C147.631287,134.312759 147.812531,131.834702 147.925232,129.355835 
	C148.712646,144.724365 153.821960,156.978668 169.112961,163.020050 
	C167.715118,167.080307 166.317291,171.140564 164.830078,175.562576 
	C160.231537,181.723755 155.722382,187.523193 151.098251,193.634750 
	C145.102737,197.680511 139.222214,201.414169 133.109665,205.391876 
	C112.215721,214.341843 92.321663,212.793625 72.955055,201.546829 
	C70.938400,200.375671 67.629738,200.259186 65.328598,200.971542 
	C58.904507,202.960236 52.718208,205.706070 46.383129,208.001480 
	C44.900757,208.538620 43.201069,208.475983 41.413338,208.385757 
z"/>
<path fill="#8AD1BB" opacity="1.000000" stroke="none" 
	d="
M200.511597,75.838501 
	C200.172699,82.797585 199.603409,89.506592 198.979568,96.609375 
	C198.455795,97.871300 197.986588,98.739433 197.288010,99.791862 
	C193.921204,100.386520 190.783768,100.796898 187.646332,101.207268 
	C187.306595,100.774529 186.966843,100.341789 186.627106,99.909050 
	C196.050705,92.245842 199.431595,82.419342 198.101990,70.421265 
	C198.865524,71.833450 199.573380,73.710938 200.511597,75.838501 
z"/>
<path fill="#87D4BD" opacity="1.000000" stroke="none" 
	d="
M191.728485,110.000877 
	C193.279602,107.479874 194.830719,104.958878 196.650070,102.249245 
	C198.483551,105.831886 200.048813,109.603172 201.775482,113.688911 
	C199.526871,113.609276 197.116821,113.215179 194.093384,112.609299 
	C192.896133,111.598640 192.312317,110.799759 191.728485,110.000877 
z"/>
<path fill="#FAC10A" opacity="1.000000" stroke="none" 
	d="
M191.438904,109.841507 
	C192.312317,110.799759 192.896133,111.598640 193.713531,112.564926 
	C195.644989,117.879494 197.342896,123.026672 199.107635,128.586670 
	C198.503052,132.813904 197.726837,136.614792 197.230881,140.451904 
	C197.100159,141.463242 197.835403,142.586502 198.442291,143.878143 
	C199.321625,149.403656 200.689407,154.835709 195.977356,159.597260 
	C187.491287,163.649979 178.949173,165.258850 169.528122,163.021942 
	C153.821960,156.978668 148.712646,144.724365 147.925232,129.355835 
	C147.812531,131.834702 147.631287,134.312759 147.602112,136.792618 
	C147.549210,141.286499 147.625092,145.781845 147.578873,150.275879 
	C147.483292,159.570114 143.783691,163.339325 134.372482,162.898529 
	C130.761780,162.729431 127.213310,161.231857 123.798859,159.211914 
	C122.308372,160.153732 120.915588,161.329361 119.311615,161.999557 
	C108.578224,166.484222 100.158340,160.929092 100.140923,149.433319 
	C100.134903,145.459686 100.139961,141.486023 100.139961,137.279358 
	C95.268402,137.654037 90.762703,138.000580 85.740181,138.386871 
	C85.740181,142.777084 85.826271,147.059402 85.721832,151.337051 
	C85.518951,159.646774 81.564125,163.085129 72.461655,163.016418 
	C63.717442,162.950409 60.108589,159.562820 60.067688,151.110214 
	C59.991978,135.463379 60.016514,119.816063 59.934116,103.727844 
	C60.177567,101.122810 60.486202,98.958893 60.787186,96.396301 
	C62.627773,91.376434 66.672310,90.436264 70.961960,90.019554 
	C72.735123,89.847298 74.535164,89.951744 77.228378,89.932846 
	C87.117569,90.749352 96.356850,88.207352 105.132530,92.009216 
	C105.779678,92.289581 106.760880,91.671913 107.562202,91.744225 
	C112.372299,92.178238 117.175194,92.691986 121.980507,93.179031 
	C123.640533,97.212601 125.300560,101.246178 127.155434,105.753189 
	C130.728882,105.886353 133.539642,105.242577 135.198578,100.274971 
	C139.419937,87.634262 148.296127,80.398415 162.494690,80.161362 
	C162.893311,81.260231 163.195892,82.457703 162.822159,83.381584 
	C161.617569,86.359444 160.163803,89.236496 158.422607,92.619766 
	C156.424515,96.022011 154.744904,98.924911 153.267181,101.927177 
	C153.051926,102.364510 153.636032,103.712006 154.130219,103.899178 
	C157.735001,105.264526 160.683868,110.025284 165.413544,106.100174 
	C166.337112,105.333702 167.872955,105.304962 169.126389,104.935959 
	C177.313583,102.591461 184.518555,104.804543 191.438904,109.841507 
M104.162399,119.731438 
	C104.163574,130.397446 104.070251,141.064651 104.204567,151.728989 
	C104.274940,157.316498 106.585060,159.035187 113.160675,158.997787 
	C119.184723,158.963516 121.231071,157.162140 121.261429,151.516922 
	C121.324173,139.851273 121.281250,128.185074 121.279732,116.519089 
	C121.279266,112.908112 121.610649,109.255020 121.168121,105.698593 
	C120.765060,102.459366 120.283722,97.245232 118.482895,96.582870 
	C114.872726,95.255035 110.334938,96.388489 106.188660,96.644867 
	C105.570633,96.683075 104.999237,97.475502 104.406265,97.919006 
	C104.411194,97.476738 104.416130,97.034470 104.421059,96.592194 
	C101.743370,95.728897 99.091347,94.230751 96.383179,94.121231 
	C88.230331,93.791534 80.055008,93.941689 71.889633,94.022964 
	C65.953636,94.082047 64.105042,95.933136 64.087868,101.838524 
	C64.040382,118.170761 64.047905,134.503265 64.083061,150.835571 
	C64.096825,157.229950 65.958191,158.961456 72.562653,158.997925 
	C79.487320,159.036163 81.615883,157.181549 81.701149,150.828400 
	C81.774269,145.379929 81.716286,139.929703 81.716286,133.997375 
	C85.703514,133.997375 89.166359,134.053116 92.626755,133.984894 
	C98.472107,133.869644 100.626816,131.776123 100.715111,126.265137 
	C100.809082,120.400833 98.636475,118.137001 92.657036,118.015953 
	C89.084007,117.943611 85.508324,118.002678 82.030426,118.002678 
	C82.030426,114.923721 82.030426,112.665726 82.030426,110.475060 
	C89.436272,108.665405 97.209572,112.387405 104.616127,106.955170 
	C104.821411,109.084618 105.148163,110.527824 105.054321,111.943138 
	C104.902054,114.239494 104.474098,116.517586 104.162399,119.731438 
M194.983597,146.019211 
	C193.489273,144.885315 192.094376,143.010468 190.477005,142.793396 
	C188.125122,142.477722 185.622879,143.456528 183.166702,143.704208 
	C179.174728,144.106766 174.977966,144.958939 171.889801,139.995071 
	C176.999420,139.995071 181.447159,140.001877 185.894867,139.993591 
	C194.004196,139.978485 195.672897,138.319336 195.314224,130.361664 
	C195.217621,128.218521 194.913925,126.050629 194.409805,123.965538 
	C191.334412,111.245201 181.128082,105.188469 168.736908,109.247787 
	C164.914505,110.499992 161.642593,113.432648 158.190277,115.551880 
	C157.657333,109.538292 155.447906,106.907219 149.872070,108.224030 
	C144.131531,109.579742 138.603867,109.242805 132.920486,109.065269 
	C128.537308,108.928337 126.088364,111.266624 126.083359,115.795181 
	C126.069939,127.943604 125.985046,140.093109 126.123260,152.239975 
	C126.182487,157.445709 128.481155,159.025650 134.954575,158.994873 
	C140.997162,158.966141 143.192001,157.319305 143.312332,152.293900 
	C143.455704,146.306274 143.350647,140.312698 143.351990,134.321701 
	C143.353989,125.355965 145.252380,123.665939 154.414444,124.560966 
	C154.261017,125.528282 154.122910,126.495544 153.952820,127.457146 
	C150.162613,148.883820 164.382065,163.134949 185.559891,159.131592 
	C194.726913,157.398697 195.550430,156.346771 194.983597,146.019211 
z"/>
<path fill="#F0F5F5" opacity="1.000000" stroke="none" 
	d="
M121.988525,92.750092 
	C117.175194,92.691986 112.372299,92.178238 107.562202,91.744225 
	C106.760880,91.671913 105.779678,92.289581 105.132530,92.009216 
	C96.356850,88.207352 87.117569,90.749352 77.688271,89.877647 
	C90.655106,81.967766 105.073196,80.615799 120.520477,83.268402 
	C121.293732,86.338928 121.645134,89.330040 121.988525,92.750092 
z"/>
<path fill="#83D3BE" opacity="1.000000" stroke="none" 
	d="
M179.731842,53.365822 
	C187.636887,56.074886 193.629639,61.010632 197.785431,68.513016 
	C196.428772,69.564774 194.975632,70.324654 193.514648,71.069183 
	C185.617554,75.093567 178.645340,71.269745 178.212601,62.402416 
	C178.071442,59.510109 179.029617,56.564152 179.731842,53.365822 
z"/>
<path fill="#FFA801" opacity="1.000000" stroke="none" 
	d="
M169.076996,104.535416 
	C167.872955,105.304962 166.337112,105.333702 165.413544,106.100174 
	C160.683868,110.025284 157.735001,105.264526 154.130219,103.899178 
	C153.636032,103.712006 153.051926,102.364510 153.267181,101.927177 
	C154.744904,98.924911 156.424515,96.022011 158.366852,93.013657 
	C159.280792,96.697182 160.557632,99.542946 165.264847,99.069626 
	C168.999191,98.694122 168.631805,101.796852 169.076996,104.535416 
z"/>
<path fill="#EFF4F0" opacity="1.000000" stroke="none" 
	d="
M104.162460,119.267410 
	C104.474098,116.517586 104.902054,114.239494 105.054321,111.943138 
	C105.148163,110.527824 104.821411,109.084618 104.616127,106.955170 
	C97.209572,112.387405 89.436272,108.665405 82.030426,110.475060 
	C82.030426,112.665726 82.030426,114.923721 82.030426,118.002678 
	C85.508324,118.002678 89.084007,117.943611 92.657036,118.015953 
	C98.636475,118.137001 100.809082,120.400833 100.715111,126.265137 
	C100.626816,131.776123 98.472107,133.869644 92.626755,133.984894 
	C89.166359,134.053116 85.703514,133.997375 81.716286,133.997375 
	C81.716286,139.929703 81.774269,145.379929 81.701149,150.828400 
	C81.615883,157.181549 79.487320,159.036163 72.562653,158.997925 
	C65.958191,158.961456 64.096825,157.229950 64.083061,150.835571 
	C64.047905,134.503265 64.040382,118.170761 64.087868,101.838524 
	C64.105042,95.933136 65.953636,94.082047 71.889633,94.022964 
	C80.055008,93.941689 88.230331,93.791534 96.383179,94.121231 
	C99.091347,94.230751 101.743370,95.728897 104.421059,96.592194 
	C104.416130,97.034470 104.411194,97.476738 104.406265,97.919006 
	C104.999237,97.475502 105.570633,96.683075 106.188660,96.644867 
	C110.334938,96.388489 114.872726,95.255035 118.482895,96.582870 
	C120.283722,97.245232 120.765060,102.459366 121.168121,105.698593 
	C121.610649,109.255020 121.279266,112.908112 121.279732,116.519089 
	C121.281250,128.185074 121.324173,139.851273 121.261429,151.516922 
	C121.231071,157.162140 119.184723,158.963516 113.160675,158.997787 
	C106.585060,159.035187 104.274940,157.316498 104.204567,151.728989 
	C104.070251,141.064651 104.163574,130.397446 104.162460,119.267410 
M69.146591,130.499954 
	C69.146591,138.258392 69.146591,146.016846 69.146591,153.638489 
	C71.950867,153.638489 74.030746,153.638489 76.503174,153.638489 
	C76.503174,145.349548 76.503174,137.411179 76.503174,128.931061 
	C82.957817,128.931061 89.028435,128.931061 95.153152,128.931061 
	C95.153152,126.759895 95.153152,125.140747 95.153152,122.948730 
	C88.903465,122.948730 82.839867,122.948730 76.766640,122.948730 
	C76.766640,116.659454 76.766640,110.949654 76.766640,104.789314 
	C84.407394,104.789314 91.666199,104.789314 98.880630,104.789314 
	C98.880630,102.711395 98.880630,101.097351 98.880630,99.324516 
	C88.949226,99.324516 79.240105,99.324516 69.146667,99.324516 
	C69.146667,109.592354 69.146667,119.546165 69.146591,130.499954 
M114.465614,153.985504 
	C115.022034,153.513947 116.061157,153.045746 116.064453,152.570343 
	C116.152901,139.844772 116.134872,127.118469 116.134872,114.383545 
	C113.602287,114.383545 111.578545,114.383545 109.262947,114.383545 
	C109.262947,126.873543 109.348648,138.973724 109.210579,151.071350 
	C109.169312,154.687347 111.490402,153.940277 114.465614,153.985504 
M112.634201,99.989655 
	C106.505859,99.976028 110.213951,104.144936 109.366234,106.675537 
	C111.871117,106.675537 113.904144,106.675537 117.323280,106.675537 
	C114.669640,104.399857 118.868561,100.397057 112.634201,99.989655 
z"/>
<path fill="#EFF4F1" opacity="1.000000" stroke="none" 
	d="
M195.061218,146.457489 
	C195.550430,156.346771 194.726913,157.398697 185.559891,159.131592 
	C164.382065,163.134949 150.162613,148.883820 153.952820,127.457146 
	C154.122910,126.495544 154.261017,125.528282 154.414444,124.560966 
	C145.252380,123.665939 143.353989,125.355965 143.351990,134.321701 
	C143.350647,140.312698 143.455704,146.306274 143.312332,152.293900 
	C143.192001,157.319305 140.997162,158.966141 134.954575,158.994873 
	C128.481155,159.025650 126.182487,157.445709 126.123260,152.239975 
	C125.985046,140.093109 126.069939,127.943604 126.083359,115.795181 
	C126.088364,111.266624 128.537308,108.928337 132.920486,109.065269 
	C138.603867,109.242805 144.131531,109.579742 149.872070,108.224030 
	C155.447906,106.907219 157.657333,109.538292 158.190277,115.551880 
	C161.642593,113.432648 164.914505,110.499992 168.736908,109.247787 
	C181.128082,105.188469 191.334412,111.245201 194.409805,123.965538 
	C194.913925,126.050629 195.217621,128.218521 195.314224,130.361664 
	C195.672897,138.319336 194.004196,139.978485 185.894867,139.993591 
	C181.447159,140.001877 176.999420,139.995071 171.889801,139.995071 
	C174.977966,144.958939 179.174728,144.106766 183.166702,143.704208 
	C185.622879,143.456528 188.125122,142.477722 190.477005,142.793396 
	C192.094376,143.010468 193.489273,144.885315 195.061218,146.457489 
M175.045853,154.850464 
	C178.503098,154.584000 181.959976,154.312698 185.417679,154.052292 
	C189.647217,153.733765 191.392120,151.841721 189.606171,147.614868 
	C172.533401,150.641983 166.371017,147.462433 165.656479,134.855927 
	C173.775864,134.855927 181.875732,134.855927 190.655899,134.855927 
	C190.103821,130.708817 190.048065,127.007004 189.071304,123.566681 
	C186.116135,113.158157 173.635956,109.333702 165.516037,116.521393 
	C158.498352,122.733391 156.922424,131.060425 159.090240,139.853165 
	C161.020432,147.682083 165.845337,153.119873 175.045853,154.850464 
M131.138016,123.547440 
	C131.138016,133.628189 131.138016,143.708939 131.138016,153.765152 
	C133.840714,153.765152 135.784393,153.765152 138.252914,153.765152 
	C138.252914,146.097366 137.903870,138.630585 138.422989,131.224640 
	C138.633606,128.220139 140.006699,124.520721 142.160248,122.625015 
	C144.861588,120.247086 148.908371,119.397575 152.788086,117.708336 
	C152.788086,116.832634 152.788086,115.069443 152.788086,113.226898 
	C146.535355,112.164375 142.556183,115.899132 138.456436,119.968567 
	C138.250336,117.537636 138.113861,115.928009 137.978439,114.330811 
	C135.630325,114.330811 133.562332,114.330811 131.138107,114.330811 
	C131.138107,117.292641 131.138107,119.928818 131.138016,123.547440 
z"/>
<path fill="#0DB68C" opacity="1.000000" stroke="none" 
	d="
M69.146629,129.999969 
	C69.146667,119.546165 69.146667,109.592354 69.146667,99.324516 
	C79.240105,99.324516 88.949226,99.324516 98.880630,99.324516 
	C98.880630,101.097351 98.880630,102.711395 98.880630,104.789314 
	C91.666199,104.789314 84.407394,104.789314 76.766640,104.789314 
	C76.766640,110.949654 76.766640,116.659454 76.766640,122.948730 
	C82.839867,122.948730 88.903465,122.948730 95.153152,122.948730 
	C95.153152,125.140747 95.153152,126.759895 95.153152,128.931061 
	C89.028435,128.931061 82.957817,128.931061 76.503174,128.931061 
	C76.503174,137.411179 76.503174,145.349548 76.503174,153.638489 
	C74.030746,153.638489 71.950867,153.638489 69.146591,153.638489 
	C69.146591,146.016846 69.146591,138.258392 69.146629,129.999969 
z"/>
<path fill="#16B890" opacity="1.000000" stroke="none" 
	d="
M114.003784,153.996414 
	C111.490402,153.940277 109.169312,154.687347 109.210579,151.071350 
	C109.348648,138.973724 109.262947,126.873543 109.262947,114.383545 
	C111.578545,114.383545 113.602287,114.383545 116.134872,114.383545 
	C116.134872,127.118469 116.152901,139.844772 116.064453,152.570343 
	C116.061157,153.045746 115.022034,153.513947 114.003784,153.996414 
z"/>
<path fill="#16B890" opacity="1.000000" stroke="none" 
	d="
M113.085083,99.990974 
	C118.868561,100.397057 114.669640,104.399857 117.323280,106.675537 
	C113.904144,106.675537 111.871117,106.675537 109.366234,106.675537 
	C110.213951,104.144936 106.505859,99.976028 113.085083,99.990974 
z"/>
<path fill="#0EB68D" opacity="1.000000" stroke="none" 
	d="
M174.645172,154.717484 
	C165.845337,153.119873 161.020432,147.682083 159.090240,139.853165 
	C156.922424,131.060425 158.498352,122.733391 165.516037,116.521393 
	C173.635956,109.333702 186.116135,113.158157 189.071304,123.566681 
	C190.048065,127.007004 190.103821,130.708817 190.655899,134.855927 
	C181.875732,134.855927 173.775864,134.855927 165.656479,134.855927 
	C166.371017,147.462433 172.533401,150.641983 189.606171,147.614868 
	C191.392120,151.841721 189.647217,153.733765 185.417679,154.052292 
	C181.959976,154.312698 178.503098,154.584000 174.645172,154.717484 
M165.604538,127.859474 
	C171.443939,128.405777 177.283325,128.952072 183.214615,129.506958 
	C182.971848,122.421532 180.861023,119.527458 176.197266,119.012154 
	C170.579117,118.391396 167.479691,120.794067 165.604538,127.859474 
z"/>
<path fill="#10B68D" opacity="1.000000" stroke="none" 
	d="
M131.138062,123.056221 
	C131.138107,119.928818 131.138107,117.292641 131.138107,114.330811 
	C133.562332,114.330811 135.630325,114.330811 137.978439,114.330811 
	C138.113861,115.928009 138.250336,117.537636 138.456436,119.968567 
	C142.556183,115.899132 146.535355,112.164375 152.788086,113.226898 
	C152.788086,115.069443 152.788086,116.832634 152.788086,117.708336 
	C148.908371,119.397575 144.861588,120.247086 142.160248,122.625015 
	C140.006699,124.520721 138.633606,128.220139 138.422989,131.224640 
	C137.903870,138.630585 138.252914,146.097366 138.252914,153.765152 
	C135.784393,153.765152 133.840714,153.765152 131.138016,153.765152 
	C131.138016,143.708939 131.138016,133.628189 131.138062,123.056221 
z"/>
<path fill="#EDF4F5" opacity="1.000000" stroke="none" 
	d="
M165.683075,127.480644 
	C167.479691,120.794067 170.579117,118.391396 176.197266,119.012154 
	C180.861023,119.527458 182.971848,122.421532 183.214615,129.506958 
	C177.283325,128.952072 171.443939,128.405777 165.683075,127.480644 
z"/>
</svg>